<?xml version="1.0" standalone="no"?><!DOCTYPE svg PUBLIC "-//W3C//DTD SVG 1.1//EN" "http://www.w3.org/Graphics/SVG/1.1/DTD/svg11.dtd"><svg t="1783566729182" class="icon" viewBox="0 0 1024 1024" version="1.1" xmlns="http://www.w3.org/2000/svg" p-id="4042" xmlns:xlink="http://www.w3.org/1999/xlink" width="200" height="200"><path d="M512 85.312c117.76 0 224.512 47.808 301.696 124.992A425.344 425.344 0 0 1 938.688 512c0 117.76-47.808 224.512-124.992 301.696A425.344 425.344 0 0 1 512 938.688a425.344 425.344 0 0 1-301.696-124.992A425.344 425.344 0 0 1 85.312 512c0-117.76 47.808-224.512 124.992-301.696A425.344 425.344 0 0 1 512 85.312z m0 85.376a339.968 339.968 0 0 0-241.344 99.968A339.968 339.968 0 0 0 170.688 512c0 91.84 36.288 177.728 99.968 241.344A339.968 339.968 0 0 0 512 853.312a339.904 339.904 0 0 0 241.344-99.968A339.904 339.904 0 0 0 853.312 512a339.968 339.968 0 0 0-99.968-241.344A339.968 339.968 0 0 0 512 170.688zM554.688 640v85.312H469.312V640h85.376z m-37.44-362.624a149.376 149.376 0 0 1 37.44 292.48v27.52H469.312v-64c0-23.616 19.136-42.688 42.688-42.688a64 64 0 1 0-62.72-76.544L365.44 397.376a149.376 149.376 0 0 1 151.68-120z" fill="#1A202E" p-id="4043"></path></svg>