<?xml version="1.0" standalone="no"?><!DOCTYPE svg PUBLIC "-//W3C//DTD SVG 1.1//EN" "http://www.w3.org/Graphics/SVG/1.1/DTD/svg11.dtd"><svg t="1783653769852" class="icon" viewBox="0 0 1024 1024" version="1.1" xmlns="http://www.w3.org/2000/svg" p-id="3705" xmlns:xlink="http://www.w3.org/1999/xlink" width="200" height="200"><path d="M554.688 745.6v107.712H704v85.376H320v-85.376h149.312v-107.648a341.376 341.376 0 0 1-298.624-338.688V85.312h682.624V407.04a341.376 341.376 0 0 1-298.624 338.688zM256 170.752v236.288a256 256 0 0 0 512 0V170.688H256z m-213.312 0H128v236.288A85.312 85.312 0 0 1 42.688 321.6V170.688z m853.312 0h85.312v150.912c0 47.168-38.208 85.376-85.312 85.376V170.688z" fill="#1A202E" p-id="3706"></path></svg>