<?xml version="1.0" standalone="no"?><!DOCTYPE svg PUBLIC "-//W3C//DTD SVG 1.1//EN" "http://www.w3.org/Graphics/SVG/1.1/DTD/svg11.dtd"><svg t="1783916594101" class="icon" viewBox="0 0 1024 1024" version="1.1" xmlns="http://www.w3.org/2000/svg" p-id="3870" xmlns:xlink="http://www.w3.org/1999/xlink" width="200" height="200"><path d="M512 85.44a426.56 426.56 0 1 1 0 853.12 426.56 426.56 0 0 1 0-853.12z m0 84.48a342.08 342.08 0 1 0 0 684.16 342.08 342.08 0 0 0 0-684.16z m10.688 256.768c23.552 0 42.624 19.072 42.624 42.624V640l32 0.064v85.312H448V640h32V426.624h42.688zM512 277.312A53.312 53.312 0 1 1 512 384a53.312 53.312 0 0 1 0-106.688z" fill="#1A202E" p-id="3871"></path></svg>