<?xml version="1.0" standalone="no"?><!DOCTYPE svg PUBLIC "-//W3C//DTD SVG 1.1//EN" "http://www.w3.org/Graphics/SVG/1.1/DTD/svg11.dtd"><svg t="1783918551141" class="icon" viewBox="0 0 1024 1024" version="1.1" xmlns="http://www.w3.org/2000/svg" p-id="4524" xmlns:xlink="http://www.w3.org/1999/xlink" width="200" height="200"><path d="M938.688 128c23.552 0 42.624 19.072 42.624 42.688v682.624a42.688 42.688 0 0 1-42.624 42.688H85.312a42.688 42.688 0 0 1-42.624-42.688V170.688c0-23.616 19.072-42.688 42.624-42.688h853.376zM896 213.312H128v597.376h768V213.312zM810.688 640v85.312h-256V640h256zM266.752 331.008l165.952 165.952a21.312 21.312 0 0 1 3.072 26.24l-3.072 3.84-165.952 165.952-60.288-60.288L327.04 512 206.464 391.296l60.288-60.288z" fill="#1A202E" p-id="4525"></path></svg>